# xmcd
#
# Track frame offsets:
#	150
#	18145
#	35218
#	53193
#	72356
#	89854
#	116716
#	133293
#	149671
#	168357
#	186377
#	205111
#	215832
#
# Disc length: 3166 seconds
#
# Revision: 2
# Processed by: cddbd v1.5.2PL0 Copyright (c) Steve Scherf et al.
# Submitted via: EasyCDDAExtractor 12.0.1.1
#
DISCID=d80c5c0d
DTITLE=Larry The Cable Guy - Tailgate Party
DYEAR=2009
DGENRE=Comedy
TTITLE0=01-Tailgate Parlty
TTITLE1=02-Prostate Professional
TTITLE2=03-Half Cocked
TTITLE3=04-Boob Tube
TTITLE4=05-Truck Talk
TTITLE5=06-Male Enhancement
TTITLE6=07-Global Warming
TTITLE7=08-Wife Swap
TTITLE8=09-Mother's Milk
TTITLE9=10-Hot Dog Whisperer
TTITLE10=11-Bad Ventriloquist
TTITLE11=12-Buying In Bulk
TTITLE12=13-Silly Songs and So Long
EXTD=
EXTT0=
EXTT1=
EXTT2=
EXTT3=
EXTT4=
EXTT5=
EXTT6=
EXTT7=
EXTT8=
EXTT9=
EXTT10=
EXTT11=
EXTT12=
PLAYORDER=
